# xmcd CD database file
#
# Track frame offsets:
#	150
#	60737
#	79755
#	112142
#	137220
#	179355
#
# Disc length: 2962 seconds
#
# Revision: 7
# Processed by: cddbd v1.5.1PL0 Copyright (c) Steve Scherf et al.
# Submitted via: CDex 1.51
#
DISCID=530b9006
DTITLE=喜多郎 - Gaia - Onbashira
DYEAR=1998
DGENRE=New Age
TTITLE0=Yamadashi -山出し-
TTITLE1=Misty -ミスティ-
TTITLE2=Gaia -ガイア-
TTITLE3=Wood Fairy -木の精霊-
TTITLE4=Satobiki -里曳き-
TTITLE5=Kiotoshi -木落とし-
EXTD=YEAR: 1998
EXTT0=
EXTT1=
EXTT2=
EXTT3=
EXTT4=
EXTT5=
PLAYORDER=
